<svg xmlns="http://www.w3.org/2000/svg" xmlns:xlink="http://www.w3.org/1999/xlink" width="250" height="117" viewBox="0 0 250 117">
  <defs>
    <clipPath id="clip-path">
      <rect id="사각형_6" data-name="사각형 6" width="80" height="80" rx="40" fill="none"/>
    </clipPath>
    <clipPath id="clip-_250x117Brit">
      <rect width="250" height="117"/>
    </clipPath>
  </defs>
  <g id="_250x117Brit" data-name="250x117Brit" clip-path="url(#clip-_250x117Brit)">
    <g id="그룹_1" data-name="그룹 1" transform="translate(-156.418 -287.638)" opacity="0.8">
      <g id="그룹_7" data-name="그룹 7" transform="translate(156.418 287.638)" clip-path="url(#clip-path)">
        <path id="패스_18" data-name="패스 18" d="M383.166,512.622v-.974l-.012,0C383.158,511.974,383.166,512.3,383.166,512.622Z" transform="translate(-303.166 -432.622)" fill="#79b0d0"/>
        <path id="패스_19" data-name="패스 19" d="M156.418,500.735h67.5a79.683,79.683,0,0,1-33.75-7.453A79.684,79.684,0,0,1,156.418,500.735Z" transform="translate(-156.418 -420.735)" fill="#d2726b"/>
        <path id="패스_20" data-name="패스 20" d="M347.756,512.625h12.5c0-.325-.008-.648-.012-.972A80.546,80.546,0,0,1,347.756,512.625Z" transform="translate(-280.256 -432.625)" fill="#196998"/>
        <path id="패스_21" data-name="패스 21" d="M156.418,409.4v37.046a79.685,79.685,0,0,0,33.75-7.453A80.331,80.331,0,0,1,156.418,409.4Z" transform="translate(-156.418 -366.443)" fill="#b54d4e"/>
        <path id="패스_22" data-name="패스 22" d="M352.844,327.638a79.606,79.606,0,0,1,10.693,39.027l.012,0V287.638A79.63,79.63,0,0,1,352.844,327.638Z" transform="translate(-283.549 -287.638)" fill="#d2726b"/>
        <path id="패스_23" data-name="패스 23" d="M225.713,327.638a79.63,79.63,0,0,0,10.705-40h-80A79.966,79.966,0,0,1,225.713,327.638Z" transform="translate(-156.418 -287.638)" fill="#bf473b"/>
        <path id="패스_24" data-name="패스 24" d="M252.087,433.571a79.683,79.683,0,0,0,33.75,7.453,80.554,80.554,0,0,0,12.488-.972,79.6,79.6,0,0,0-10.693-39.027A80.335,80.335,0,0,1,252.087,433.571Z" transform="translate(-218.337 -361.024)" fill="#bf473b"/>
        <path id="패스_25" data-name="패스 25" d="M156.418,287.638v42.954a80.332,80.332,0,0,0,33.75,29.593,80.336,80.336,0,0,0,35.545-32.547A79.966,79.966,0,0,0,156.418,287.638Zm27.5,30.625a3.125,3.125,0,1,1,3.125-3.125A3.125,3.125,0,0,1,183.918,318.263Z" transform="translate(-156.418 -287.638)" fill="#d4aeac"/>
        <circle id="타원_3" data-name="타원 3" cx="3.125" cy="3.125" r="3.125" transform="translate(24.375 24.375)" fill="#d2726b"/>
      </g>
    </g>
    <text id="BRIT" transform="translate(85 75)" fill="#c6665c" font-size="60" font-family="esamanruBold, esamanru"><tspan x="0" y="0">B</tspan><tspan y="0" fill="#d7b8b7">RIT</tspan></text>
  </g>
</svg>
